<svg
          xmlns="http://www.w3.org/2000/svg"
          width="120"
          height="70"
          viewBox="0 0 120 70"
          fill="none"
        >
          <path
            d="M29.7137 39.0667C28.9137 39.0667 28.2566 38.4191 28.2566 37.6095V35.4857H30.628V33.4857H28.2566V30.7429H23.5518V33.4857H22.1328V35.4857H23.5518V38.3524V38.4476C23.5518 39.8762 25.1328 41.0286 27.0852 41.0286C28.7709 41.0286 29.9804 40.581 30.6185 40.2667V38.7429C30.3709 38.9524 30.0471 39.0667 29.7137 39.0667Z"
            fill="white"
          />
          <path
            d="M20.6281 33.4856H15.9805V40.5999H20.6281V33.4856Z"
            fill="white"
          />
          <path
            d="M18.3045 32.4476C19.5807 32.4476 20.6188 31.6857 20.6188 30.7333C20.6188 29.781 19.5807 29.0286 18.3045 29.0286C17.0283 29.0286 15.9902 29.7905 15.9902 30.7333C15.9902 31.6762 17.0283 32.4476 18.3045 32.4476Z"
            fill="white"
          />
          <path
            d="M61.0469 37.6381H67.5897C67.5897 37.6381 67.7707 35.9238 66.9231 34.8381C66.0088 33.6762 64.1707 33 62.1516 33C60.1326 33 56.3516 33.4952 56.3516 37.0667C56.3516 40.6381 59.8659 41.0381 62.1421 41.0381C66.4755 41.0381 67.4659 40.0286 67.4659 40.0286V38.5714C66.0945 39.0286 64.6564 39.2571 63.2088 39.2571C60.8088 39.2571 61.0469 37.9048 61.0469 37.6381ZM61.0469 35.9714V35.7333C61.0469 35.1048 61.5612 34.5905 62.1897 34.5905C62.8183 34.5905 63.3326 35.1048 63.3326 35.7333V35.981V36H61.0469V35.9714Z"
            fill="white"
          />
          <path
            d="M50.9136 33.2668C49.847 33.2668 48.847 33.762 48.2375 34.2001V29.6858H43.5898V40.6001H48.2279V37.1429C48.2279 36.5144 48.7422 36.0001 49.3708 36.0001C49.9994 36.0001 50.5136 36.5144 50.5136 37.1429C50.5136 37.1429 50.5136 37.1429 50.5136 37.1525V40.6001H54.7613V36.4668C54.7613 35.7144 53.8851 33.2668 50.9136 33.2668Z"
            fill="white"
          />
          <path
            d="M76.6674 33.2666C75.6008 33.2666 74.6009 33.7618 73.9914 34.1999V33.4856H69.3438V40.5999H73.9818V37.1428C73.9818 36.5142 74.4961 35.9999 75.1247 35.9999C75.7533 35.9999 76.2675 36.5142 76.2675 37.1428C76.2675 37.1428 76.2675 37.1428 76.2675 37.1523V40.5999H80.5247V36.4666C80.5247 35.7142 79.6389 33.2666 76.6674 33.2666Z"
            fill="white"
          />
          <path
            d="M102.161 33.4856H97.5137V40.5999H102.161V33.4856Z"
            fill="white"
          />
          <path
            d="M99.8377 32.4476C101.114 32.4476 102.152 31.6857 102.152 30.7333C102.152 29.781 101.114 29.0286 99.8377 29.0286C98.5615 29.0286 97.5234 29.7905 97.5234 30.7333C97.5234 31.6762 98.5615 32.4476 99.8377 32.4476Z"
            fill="white"
          />
          <path
            d="M90.6472 40.6H96.2091L91.2091 29H85.6472L86.2376 30.3619L81.8281 40.6H84.6091L85.4853 38.5524H89.7614L90.6472 40.6ZM86.59 36L87.6281 33.5905L88.6662 36H86.59Z"
            fill="white"
          />
          <path
            d="M12.2571 35.019C11.9333 34.2381 11.2571 33.6667 10.4286 33.4857L13.5714 29H9.4L6.59048 33.0286C6.37143 33.3143 6.03809 33.4857 5.67619 33.4857C5.55238 33.4857 5.46667 33.4952 5.42857 33.4857V29H0V40.6H5.42857V36.5524C5.65714 36.4381 5.90476 36.381 6.1619 36.381C6.85714 36.381 7.47619 36.8 7.74286 37.4381L9.10476 40.6H14.6667L12.2571 35.019Z"
            fill="white"
          />
          <path
            d="M39.2295 38.5048C37.6962 38.5048 36.4486 38.0286 36.4486 37.0095C36.4486 35.9905 37.6962 35.5238 39.2295 35.5238C40.1438 35.5238 40.9534 35.6952 41.4581 36.0476V33.9905C40.4295 33.3238 39.02 33 37.4486 33C34.3343 33 31.8105 34.2857 31.8105 37.019C31.8105 39.7524 34.3438 41.0381 37.4581 41.0381C39.02 41.0381 40.4391 40.7143 41.4676 40.0476V37.9809C40.9534 38.3333 40.1438 38.5048 39.2295 38.5048Z"
            fill="white"
          />
          <path
            d="M110.924 29.6667V33.6762C110.19 33.2857 109.381 32.981 108.324 32.981C105.638 32.981 103.686 34.2095 103.686 36.8C103.686 39.3905 105.638 40.6191 108.324 40.6191C109.381 40.6191 110.19 40.3143 110.924 39.9238V40.581H115.571V29.6667H110.924ZM109.657 38.1619C108.838 38.1619 108.324 37.5524 108.324 36.8C108.324 36.0476 108.838 35.4381 109.657 35.4381C110.133 35.4476 110.59 35.6381 110.924 35.9714V37.6381C110.59 37.9714 110.133 38.1619 109.657 38.1619Z"
            fill="white"
          />
          <path
            d="M119.134 30.2189C119.134 29.857 118.868 29.657 118.449 29.657H117.811V31.5237H118.22V30.8094H118.353L118.849 31.5427L119.277 31.4665L118.772 30.7332C119.001 30.657 119.144 30.4475 119.134 30.2189ZM118.401 30.5142H118.211V29.9808H118.401C118.601 29.9808 118.706 30.0761 118.706 30.238C118.715 30.4284 118.601 30.5142 118.401 30.5142Z"
            fill="white"
          />
          <path
            d="M118.428 29.0286C117.514 29.0286 116.857 29.6857 116.857 30.6381C116.857 31.5905 117.505 32.2381 118.428 32.2381C119.343 32.2381 120 31.5905 120 30.6381C120 29.6857 119.352 29.0286 118.428 29.0286ZM118.428 31.9714C117.724 31.9714 117.171 31.4952 117.171 30.6381C117.171 29.781 117.733 29.3048 118.428 29.3048C119.124 29.3048 119.695 29.781 119.695 30.6381C119.695 31.4952 119.143 31.9714 118.428 31.9714Z"
            fill="white"
          />
        </svg>