<svg xmlns="http://www.w3.org/2000/svg" width="100" height="70" viewBox="0 0 100 70" fill="none">
<path fill-rule="evenodd" clip-rule="evenodd" d="M7.45909 52.1541L5.38646 57.23H5.35731L3.24068 52.1541H0V61.9901H2.40865V55.7406H2.43839L4.43786 60.6654H6.23335L8.21796 55.7271H8.2477V61.9901H10.6558V52.1541H7.45909Z" fill="white"/>
<path fill-rule="evenodd" clip-rule="evenodd" d="M16.1401 59.8796C16.3705 59.8796 16.5909 59.8459 16.802 59.7796C17.013 59.7133 17.2 59.6133 17.363 59.4801C17.526 59.3469 17.6585 59.173 17.7587 58.959C17.8602 58.745 17.9106 58.4949 17.9106 58.2099V55.198C17.9106 54.9316 17.8602 54.6961 17.7587 54.4914C17.6585 54.2873 17.526 54.1134 17.363 53.9703C17.2 53.8278 17.0077 53.7208 16.7873 53.6493C16.5669 53.5777 16.3365 53.5423 16.0973 53.5423C15.8669 53.5423 15.6459 53.5731 15.4354 53.6353C15.2243 53.697 15.0344 53.797 14.8667 53.9342C14.6991 54.0727 14.5666 54.246 14.471 54.4559C14.3749 54.6647 14.3268 54.9171 14.3268 55.2125V58.1954C14.3268 58.7374 14.4974 59.1544 14.838 59.4446C15.178 59.7348 15.613 59.8796 16.1401 59.8796ZM16.1401 61.9779C15.565 61.9779 15.0127 61.9064 14.4857 61.7639C13.9574 61.6208 13.4896 61.3999 13.0822 61.1003C12.6747 60.8003 12.3511 60.4153 12.1113 59.9436C11.8715 59.4731 11.752 58.909 11.752 58.2524V55.312C11.752 54.6647 11.8739 54.1011 12.1184 53.6208C12.3634 53.1404 12.6864 52.7385 13.0898 52.4146C13.4925 52.0907 13.9551 51.8505 14.478 51.694C15.001 51.5364 15.5357 51.4585 16.0826 51.4585C16.6583 51.4585 17.2094 51.5341 17.7376 51.6865C18.2647 51.8388 18.7325 52.0744 19.14 52.3931C19.5474 52.7124 19.8739 53.1119 20.1184 53.5917C20.3629 54.0727 20.4854 54.6408 20.4854 55.2974V58.1239C20.4854 58.7903 20.3605 59.3661 20.1114 59.8511C19.8622 60.3362 19.531 60.7363 19.1188 61.0503C18.7061 61.3644 18.2406 61.5976 17.723 61.7494C17.2047 61.9017 16.6771 61.9779 16.1401 61.9779Z" fill="white"/>
<path fill-rule="evenodd" clip-rule="evenodd" d="M21.9824 51.6296H24.4717L28.3855 57.3819H28.4142V51.6296H30.7886V61.8065H28.3996L24.3855 55.8262H24.3568V61.8065H21.9824V51.6296Z" fill="white"/>
<mask id="mask0" style="mask-type:alpha" maskUnits="userSpaceOnUse" x="32" y="51" width="10" height="11">
<path d="M32.5 51.6296H41.0324V61.9779H32.5V51.6296Z" fill="white"/>
</mask>
<g mask="url(#mask0)">
<path fill-rule="evenodd" clip-rule="evenodd" d="M36.7304 61.9781C36.0779 61.9781 35.4905 61.9013 34.9676 61.749C34.4446 61.5977 34.0014 61.364 33.6368 61.0499C33.2721 60.7359 32.9913 60.3416 32.7949 59.8653C32.5979 59.3901 32.5 58.833 32.5 58.195V51.6296H35.0608V58.024C35.0608 58.5951 35.2097 59.047 35.5075 59.3802C35.8047 59.7129 36.2409 59.8798 36.8166 59.8798C37.3636 59.8798 37.7828 59.7222 38.0759 59.4087C38.3684 59.0947 38.5144 58.6335 38.5144 58.024V51.6296H41.0324V58.095C41.0324 58.7329 40.9222 59.2924 40.7011 59.7722C40.4807 60.2532 40.1764 60.6573 39.7878 60.9859C39.3997 61.3139 38.9435 61.5617 38.4212 61.728C37.8977 61.8943 37.3343 61.9781 36.7304 61.9781Z" fill="white"/>
</g>
<path fill-rule="evenodd" clip-rule="evenodd" d="M42.7441 51.6296H45.9381L48.0251 56.8818H48.0539L50.097 51.6296H53.2481V61.8065H50.8738V55.3261H50.845L48.8881 60.4364H47.1182L45.1472 55.3406H45.1185V61.8065H42.7441V51.6296Z" fill="white"/>
<path fill-rule="evenodd" clip-rule="evenodd" d="M55.0039 51.6296H62.5584V53.6994H57.5799V55.6401H61.767V57.696H57.5799V59.7222H62.5877V61.8065H55.0039V51.6296Z" fill="white"/>
<path fill-rule="evenodd" clip-rule="evenodd" d="M64.1836 51.6296H66.6728L70.5867 57.3819H70.6154V51.6296H72.9897V61.8065H70.6008L66.5867 55.8262H66.5579V61.8065H64.1836V51.6296Z" fill="white"/>
<path fill-rule="evenodd" clip-rule="evenodd" d="M77.1332 53.6709H74.2266V51.6296H82.6159V53.6709H79.7092V61.8065H77.1332V53.6709Z" fill="white"/>
<path fill-rule="evenodd" clip-rule="evenodd" d="M87.6695 57.9099L86.4894 54.2274H86.4466L85.2524 57.9099H87.6695ZM85.209 51.615H87.9574L91.5546 61.8064H88.9218L88.3027 59.9082H84.6333L84.0002 61.8064H81.5684L85.209 51.615Z" fill="white"/>
<path fill-rule="evenodd" clip-rule="evenodd" d="M92.5469 51.6296H95.1229V59.7222H100V61.8065H92.5469V51.6296Z" fill="white"/>
<mask id="mask1" style="mask-type:alpha" maskUnits="userSpaceOnUse" x="13" y="8" width="74" height="39">
<path d="M13.5996 8H86.1535V46.7155H13.5996V8Z" fill="white"/>
</mask>
<g mask="url(#mask1)">
<path fill-rule="evenodd" clip-rule="evenodd" d="M59.6665 34.0803L55.7309 44.4142L44.0017 44.4101L40.0591 34.0942L33.8096 44.4107L16.9852 44.4142L30.2241 10.3115H45.4234L49.0464 16.4447L47.4829 19.035H39.9788L39.9747 19.0345L41.7159 21.7498L45.0142 23.0903L43.1088 26.2599H43.11L43.0959 28.8613L49.8666 25.3695L56.6496 28.8432V26.2616L56.6467 26.2599L54.7437 23.0932L58.1047 21.7498L59.7773 19.0362L59.779 19.035H52.2732L50.6733 16.4331L54.3022 10.3063L69.5009 10.3086L82.7685 44.4142L65.9089 44.4084L59.6665 34.0803ZM49.8607 16.7495L51.7209 19.7748H56.5781H57.0969L52.7738 21.4869L53.9346 23.4166L54.6463 24.6024L54.9459 25.1002L49.8525 22.5896L44.8113 25.0973L45.1267 24.5722L45.8208 23.4178L46.9816 21.4869L42.6586 19.7748H43.1346H48.0351L49.8607 16.7495ZM71.0902 8.00092L52.9702 7.99976L49.8555 13.2571L46.7542 8.00615H28.6277L13.5996 46.7102L35.1228 46.7154L39.5825 39.3534L42.3959 46.7149H57.3355L60.1419 39.351L64.5916 46.7131L86.1535 46.7108L71.0902 8.00092Z" fill="white"/>
</g>
</svg>