<svg xmlns="http://www.w3.org/2000/svg" width="156" height="70" viewBox="0 0 156 70" fill="none">
<g clip-path="url(#clip0_1035_10312)">
<path d="M139.964 27.9148C138.505 28.6646 136.878 29.0268 135.238 28.9665C133.599 28.9062 132.003 28.4255 130.602 27.5705C129.202 26.7155 128.046 25.515 127.243 24.0842C126.441 22.6533 126.019 21.0402 126.02 19.3997V9.56348C126.021 7.86848 125.596 6.20043 124.784 4.71257C123.972 3.22471 122.799 1.96474 121.373 1.04841C122.832 0.298572 124.46 -0.0635861 126.099 -0.00330058C127.738 0.056985 129.335 0.537689 130.735 1.39266C132.135 2.24764 133.292 3.44818 134.094 4.87902C134.897 6.30987 135.318 7.92298 135.317 9.56348V19.403C135.314 20.7317 135.573 22.0481 136.081 23.2761C136.588 24.504 137.334 25.6193 138.275 26.5575C138.787 27.0702 139.353 27.5253 139.964 27.9148Z" fill="white"/>
<path d="M122.462 19.1302H115.889C114.439 19.1327 113.008 18.8059 111.704 18.1744C110.399 17.543 109.255 16.6234 108.357 15.4851C107.46 14.3469 106.833 13.0196 106.523 11.6036C106.214 10.1876 106.23 8.71973 106.571 7.31088C106.912 5.90202 107.568 4.58896 108.49 3.4708C109.412 2.35263 110.577 1.45857 111.895 0.856097C113.213 0.253625 114.651 -0.0415195 116.1 -0.0070605C117.549 0.0273985 118.972 0.390562 120.26 1.05502C119.651 1.44543 119.086 1.9017 118.577 2.41559C117.365 3.63062 116.482 5.13411 116.011 6.78456C115.54 8.43501 115.497 10.1781 115.885 11.8499C116.274 13.5217 117.081 15.0671 118.232 16.3407C119.382 17.6144 120.838 18.5743 122.462 19.1302V19.1302Z" fill="white"/>
<path d="M154.999 19.3997C154.998 21.0395 154.576 22.6516 153.773 24.0813C152.97 25.5111 151.813 26.7108 150.414 27.5654C149.014 28.42 147.419 28.9009 145.78 28.9621C144.141 29.0233 142.515 28.6627 141.055 27.9148C141.665 27.5241 142.23 27.0679 142.741 26.5542C143.953 25.3397 144.837 23.8368 145.309 22.1869C145.781 20.5369 145.826 18.7941 145.439 17.1222C145.052 15.4503 144.247 13.9041 143.098 12.629C141.949 11.3539 140.496 10.3918 138.873 9.83301H145.446C147.98 9.83996 150.408 10.8505 152.198 12.6435C153.989 14.4365 154.996 16.8658 154.999 19.3997V19.3997Z" fill="white"/>
<path d="M60.2734 54.1631H61.3711V61.196H70.7111V54.1631H71.8087V69.5435H70.7111V62.3101H61.3711V69.5599H60.2734V54.1631Z" fill="white"/>
<path d="M75.7783 64.7263C75.8372 65.8039 76.299 66.82 77.0721 67.573C77.8453 68.3261 78.8732 68.761 79.952 68.7916C80.6413 68.7778 81.3179 68.6038 81.9283 68.2832C82.5386 67.9626 83.066 67.5043 83.4685 66.9446L84.1257 67.5821C83.6493 68.2483 83.0239 68.7941 82.2993 69.1758C81.5746 69.5575 80.7709 69.7646 79.952 69.7808C77.2046 69.7808 74.7891 67.3652 74.7891 64.2859C74.7891 61.2065 77.2079 58.791 79.8436 58.791C82.4793 58.791 84.6779 60.9896 84.6779 64.2859V64.7263H75.7783ZM75.7783 63.7403H83.6886C83.5802 61.4399 81.9304 59.7967 79.8436 59.7967C77.7567 59.7967 75.89 61.6502 75.7783 63.7371V63.7403Z" fill="white"/>
<path d="M94.4579 62.9673C94.4579 61.1434 93.1827 59.7828 91.5001 59.7828C90.9069 59.8027 90.325 59.9505 89.7941 60.2159C89.2632 60.4813 88.7959 60.8582 88.424 61.3208L87.7667 60.6636C87.7667 60.6636 89.1306 58.7969 91.5034 58.7969C93.7677 58.7969 95.4471 60.6208 95.4471 62.9706V69.5631H94.4612V67.8016C94.0293 68.4186 93.4532 68.9207 92.7831 69.2643C92.113 69.608 91.3691 69.7828 90.6161 69.7735C88.5292 69.7735 87.0996 68.3439 87.0996 66.8157C87.0996 65.1725 88.309 63.9368 90.2841 63.6312L94.4579 62.9673ZM94.4579 64.9392V63.9532L90.5142 64.6105C88.871 64.8734 88.0954 65.7082 88.0954 66.8091C88.0954 67.795 89.0813 68.781 90.6226 68.781C91.1292 68.7917 91.6328 68.6999 92.1029 68.5109C92.5731 68.322 93.0002 68.0399 93.3585 67.6816C93.7168 67.3233 93.9989 66.8962 94.1878 66.426C94.3768 65.9559 94.4686 65.4523 94.4579 64.9457V64.9392Z" fill="white"/>
<path d="M100.127 69.5599H99.1406V54.1631H100.127V69.5435V69.5599Z" fill="white"/>
<path d="M104.916 55.498H105.793V59.0145H108.212V60.0004H105.793V66.9216C105.793 68.131 106.451 68.7883 107.437 68.7883C107.931 68.7787 108.418 68.6668 108.866 68.4596V69.4456C108.418 69.6527 107.931 69.7646 107.437 69.7742C105.793 69.7742 104.808 68.7883 104.808 66.9183V60.0004H102.721V59.0145H104.15C104.26 59.0135 104.369 58.9892 104.469 58.9432C104.569 58.8973 104.659 58.8307 104.731 58.7479C104.804 58.6651 104.858 58.5678 104.891 58.4626C104.923 58.3573 104.933 58.2464 104.919 58.137V55.5079L104.916 55.498Z" fill="white"/>
<path d="M112.662 60.8805C113.016 60.2357 113.541 59.7003 114.178 59.3324C114.815 58.9645 115.541 58.7782 116.277 58.7936C118.696 58.7936 120.549 60.6603 120.549 63.2993V69.5632H119.563V63.296C119.563 61.2091 118.134 59.7796 116.277 59.7796C114.305 59.7796 112.662 61.4228 112.662 63.6246V69.5566H111.676V54.1631H112.662V60.8641V60.8805Z" fill="white"/>
<path d="M0.923574 29.4921C0.923574 25.3348 4.51233 21.7461 10.1814 21.7461C16.0378 21.7461 18.8706 25.3348 18.8706 25.3348L15.4856 28.9269C15.4856 28.9269 13.596 26.6593 10.5725 26.6593C8.30484 26.6593 6.98371 27.9738 6.98371 29.4921C6.98371 34.402 20.0176 31.5692 20.0176 41.0143C20.0176 45.7369 16.4288 49.3256 10.0039 49.3256C3.39166 49.3256 -0.00976562 44.981 -0.00976562 44.981L3.39166 41.5796C4.17668 42.4619 5.13795 43.1699 6.21347 43.6579C7.28898 44.1458 8.45485 44.4029 9.63584 44.4124C12.4687 44.4124 13.9805 42.9007 13.9805 41.011C13.9739 36.1044 0.923574 38.9406 0.923574 29.4921Z" fill="white"/>
<path d="M28.0662 48.576L20.8887 30.251H26.1798L30.5244 42.529L34.4451 31.4867C34.5721 31.1289 34.8068 30.8193 35.1169 30.6004C35.4271 30.3814 35.7974 30.264 36.177 30.2641H40.1667L32.8019 49.8905C31.1028 54.4258 28.8352 56.6901 25.6244 56.6901C24.5282 56.6998 23.4397 56.5071 22.4136 56.1216V51.5863C23.0097 51.8443 23.6537 51.9731 24.3032 51.9643C24.9873 51.9914 25.663 51.8064 26.2378 51.4346C26.8126 51.0628 27.2584 50.5223 27.5141 49.8872L28.0662 48.576Z" fill="white"/>
<path d="M47.8271 32.5158C47.8271 32.5158 49.7168 29.8867 53.1182 29.8867C57.2755 29.8867 60.2957 32.9102 60.2957 38.0107V48.7803H57.0323C56.5451 48.7803 56.0778 48.5867 55.7333 48.2422C55.3887 47.8977 55.1952 47.4304 55.1952 46.9432V38.5628C55.1952 36.2952 53.6834 34.7835 51.6064 34.7835C49.3388 34.7835 47.8271 36.2952 47.8271 39.1281V48.7638H42.7266V30.2482H47.8271V32.5158Z" fill="white"/>
<path d="M68.4719 41.2045C68.8499 43.0942 70.5489 44.7933 73.3851 44.7933C74.6928 44.7931 75.9692 44.3929 77.0429 43.6463C77.4275 43.3914 77.8946 43.292 78.3497 43.3682C78.8049 43.4445 79.214 43.6907 79.4945 44.0571L80.9373 45.914C79.8941 46.9488 78.6554 47.7657 77.2934 48.3169C75.9313 48.8682 74.4732 49.1428 73.0039 49.1248C66.7926 49.1248 62.0372 43.5379 63.4207 37.3233C63.8991 35.1793 65.1034 33.2664 66.8299 31.9082C68.5564 30.55 70.6991 29.8299 72.8954 29.8697C78.1537 29.9125 82.0678 33.866 82.0678 39.1243C82.0821 39.8214 82.0193 40.5179 81.8805 41.2013H68.4719V41.2045ZM68.4719 37.6158H76.9739C76.804 36.6445 76.2906 35.7667 75.5275 35.1423C74.7644 34.5179 73.8022 34.1886 72.8166 34.2144C70.5489 34.2144 69.0372 35.7261 68.4719 37.6158Z" fill="white"/>
<path d="M94.491 49.1416C89.1999 49.1416 84.668 44.6064 84.668 39.5059C84.668 34.4054 89.2032 29.8701 94.491 29.8701C99.7789 29.8701 104.314 34.4021 104.314 39.5059C104.314 44.6096 99.7789 49.1416 94.491 49.1416ZM94.491 44.419C96.946 44.419 99.0263 42.342 99.0263 39.5059C99.0263 36.6697 96.9493 34.5927 94.491 34.5927C92.0328 34.5927 89.9558 36.6697 89.9558 39.5059C89.9558 42.342 92.0361 44.419 94.491 44.419Z" fill="white"/>
<path d="M117.548 35.7265C117.548 35.7265 116.414 34.2147 114.525 34.2147C113.013 34.2147 112.257 34.9706 112.257 35.7265C112.257 38.3556 120.759 37.0411 120.759 43.2852C120.759 46.496 118.13 49.1416 113.391 49.1416C108.1 49.1416 105.832 45.7402 105.832 45.7402L108.665 42.9073C108.665 42.9073 110.177 44.9843 112.632 44.9843C114.331 44.9843 115.087 44.2284 115.087 43.2852C115.087 40.4523 106.585 41.8491 106.585 35.7265C106.585 32.8936 109.608 29.8701 113.762 29.8701C118.107 29.8701 120.184 32.703 120.184 32.703L117.548 35.7265Z" fill="white"/>
<path d="M124.633 44.8134C124.929 44.8212 125.215 44.9159 125.457 45.0857C125.699 45.2555 125.885 45.4929 125.993 45.7681C126.1 46.0434 126.124 46.3442 126.062 46.633C125.999 46.9217 125.853 47.1856 125.641 47.3916C125.429 47.5976 125.161 47.7365 124.871 47.791C124.58 47.8454 124.28 47.813 124.008 47.6978C123.736 47.5825 123.504 47.3896 123.341 47.1431C123.178 46.8966 123.091 46.6075 123.092 46.312C123.09 46.1112 123.13 45.9121 123.207 45.7268C123.285 45.5416 123.399 45.3739 123.543 45.2339C123.687 45.0938 123.858 44.9844 124.045 44.9122C124.232 44.8399 124.432 44.8063 124.633 44.8134V44.8134ZM124.633 47.4951C124.868 47.505 125.101 47.4443 125.301 47.3209C125.501 47.1975 125.66 47.0171 125.757 46.8028C125.854 46.5884 125.885 46.35 125.845 46.1181C125.806 45.8862 125.698 45.6714 125.535 45.5013C125.373 45.3312 125.163 45.2136 124.933 45.1635C124.703 45.1135 124.464 45.1333 124.245 45.2205C124.027 45.3076 123.839 45.4581 123.707 45.6526C123.575 45.8471 123.503 46.0768 123.503 46.312C123.497 46.4645 123.522 46.6166 123.576 46.7593C123.63 46.9019 123.712 47.0323 123.818 47.1426C123.923 47.253 124.05 47.341 124.19 47.4016C124.33 47.4621 124.481 47.4939 124.633 47.4951V47.4951ZM124.035 45.4674H124.669C125.09 45.4674 125.327 45.5989 125.327 45.967C125.331 46.0263 125.322 46.0859 125.302 46.1418C125.281 46.1977 125.249 46.2486 125.208 46.2912C125.166 46.3337 125.116 46.367 125.06 46.3887C125.005 46.4104 124.946 46.4201 124.886 46.4172L125.336 47.1533H124.985L124.574 46.4336H124.364V47.1533H124.035V45.4707V45.4674ZM124.364 46.1707H124.659C124.847 46.1707 124.988 46.1411 124.988 45.9374C124.988 45.7336 124.794 45.7271 124.643 45.7271H124.364V46.1674V46.1707Z" fill="white"/>
</g>
<defs>
<clipPath id="clip0_1035_10312">
<rect width="156" height="70" fill="white"/>
</clipPath>
</defs>
</svg>