<?xml version="1.0" standalone="no"?>
<!DOCTYPE svg PUBLIC "-//W3C//DTD SVG 20010904//EN"
 "http://www.w3.org/TR/2001/REC-SVG-20010904/DTD/svg10.dtd">
<svg version="1.0" xmlns="http://www.w3.org/2000/svg"
 width="140.000000pt" height="140.000000pt" viewBox="0 0 140.000000 140.000000"
 preserveAspectRatio="xMidYMid meet">
<metadata>
Created by potrace 1.10, written by Peter Selinger 2001-2011
</metadata>
<g transform="translate(0.000000,140.000000) scale(0.100000,-0.100000)"
fill="#000000" stroke="none">
<path d="M612 1369 c-151 -20 -276 -82 -388 -194 -132 -131 -197 -287 -197
-475 0 -186 65 -344 197 -475 186 -185 433 -244 686 -166 159 50 316 184 389
332 54 111 74 193 74 309 0 117 -20 198 -75 310 -58 119 -169 230 -288 288
-133 65 -266 89 -398 71z m288 -58 c98 -31 184 -87 264 -172 84 -89 129 -168
156 -275 32 -124 32 -124 -44 -124 -44 0 -67 5 -76 15 -11 13 -8 15 16 15 16
0 34 4 41 8 10 7 43 72 43 86 0 2 -18 18 -39 36 l-40 31 -40 -25 -39 -25 -15
37 -15 37 44 46 c38 38 44 50 39 72 -4 14 -18 33 -32 42 -21 14 -27 14 -46 3
-94 -60 -93 -59 -115 -41 -19 16 -20 23 -10 69 27 126 -48 161 -129 59 -49
-61 -97 -39 -99 45 0 25 -4 51 -8 58 -9 15 -108 16 -123 1 -8 -8 -8 -20 -2
-38 7 -18 5 -39 -4 -66 -12 -34 -19 -40 -46 -43 -25 -3 -37 3 -54 24 -12 15
-24 39 -27 53 -7 37 -57 41 -95 8 -24 -20 -27 -28 -21 -59 4 -20 16 -48 28
-63 l22 -28 -30 -23 c-16 -13 -33 -24 -38 -24 -13 0 -46 31 -46 43 0 15 -31
47 -45 47 -20 0 -75 -62 -75 -84 0 -26 18 -46 41 -46 9 0 27 -9 40 -19 l24
-19 -23 -46 c-20 -43 -24 -46 -45 -35 -12 6 -30 18 -39 26 -15 13 -20 13 -46
-5 -50 -36 -54 -46 -42 -94 l12 -43 15 29 c14 28 14 30 -8 47 l-23 17 29 4
c21 2 31 10 36 28 l6 25 8 -27 c5 -22 13 -28 34 -28 l26 -1 -22 -18 c-15 -12
-18 -22 -12 -32 19 -30 10 -43 -14 -21 -23 22 -24 22 -41 3 -23 -26 -14 -39
24 -33 23 3 30 0 30 -12 0 -13 -11 -16 -59 -16 -33 0 -66 -3 -75 -6 -38 -14
-8 135 51 256 52 107 178 233 286 285 151 72 332 86 487 36z m-209 -33 l12
-23 10 23 c6 12 19 22 30 22 20 0 20 0 -1 -23 -27 -29 -28 -47 -2 -75 11 -12
20 -23 20 -26 0 -11 -36 8 -51 27 -17 20 -17 20 -28 -1 -6 -12 -19 -22 -28
-22 -14 0 -13 4 5 23 27 29 27 38 1 71 l-20 26 20 0 c11 0 26 -10 32 -22z
m-207 -33 c4 -10 -1 -15 -15 -15 -11 0 -22 -7 -26 -15 -8 -21 3 -30 20 -17 14
12 27 7 27 -10 0 -5 -4 -7 -9 -3 -13 8 -22 -10 -15 -29 6 -15 9 -15 30 -1 13
8 25 11 29 5 3 -5 -12 -18 -33 -29 l-39 -20 -23 47 c-13 26 -27 50 -33 53 -5
3 9 16 30 27 47 25 49 26 57 7z m488 -41 c2 -19 0 -37 -4 -40 -4 -3 -8 -16 -8
-29 0 -18 -4 -22 -19 -18 -12 3 -17 11 -14 22 5 20 -29 40 -35 22 -4 -12 -32
-15 -32 -5 0 11 94 93 101 88 4 -2 9 -20 11 -40z m-122 -85 c30 -11 79 -35
108 -55 56 -39 138 -140 148 -183 4 -14 11 -31 16 -38 5 -7 7 -17 4 -22 -4 -5
-2 -12 4 -16 5 -3 10 -27 10 -51 l0 -46 102 3 c72 2 103 -1 106 -9 3 -9 -24
-12 -101 -12 l-104 0 -6 -56 c-14 -131 -114 -267 -246 -332 -74 -36 -77 -37
-191 -37 -88 0 -121 4 -134 15 -10 8 -27 16 -39 17 -39 6 -105 52 -156 110
-53 60 -62 77 -34 66 11 -4 14 -3 9 5 -4 7 -14 12 -21 12 -12 0 -32 24 -33 40
0 3 -6 19 -12 35 -6 17 -14 52 -17 78 l-6 48 -101 -2 c-67 -1 -101 2 -104 10
-3 8 28 11 102 11 l106 0 0 28 c0 36 26 126 52 175 25 50 90 121 146 159 33
23 50 28 75 24 21 -4 26 -3 13 2 -11 5 -15 11 -10 15 6 3 16 2 24 -4 24 -14
35 -10 14 6 -23 18 -2 20 29 3 20 -10 21 -10 8 5 -11 15 -11 17 1 17 8 0 20
-6 27 -12 9 -9 12 -9 7 -1 -16 28 113 23 204 -8z m-566 -23 c-14 -11 -14 -14
7 -29 58 -40 63 -46 50 -61 -11 -13 -15 -13 -33 2 -12 9 -28 25 -37 35 -19 21
-31 22 -31 1 0 -9 -5 -14 -11 -12 -17 6 -13 17 17 58 22 28 32 36 42 28 10 -8
9 -13 -4 -22z m884 -8 c7 -7 12 -21 11 -32 0 -20 -1 -20 -11 2 -14 27 -34 23
-30 -6 8 -54 -43 -82 -72 -40 -18 25 -21 58 -6 58 6 0 10 -11 10 -24 0 -27 28
-43 36 -21 3 8 3 19 -1 24 -9 16 13 51 33 51 10 0 23 -5 30 -12z m62 -198 c0
-16 7 -20 32 -20 l32 0 -23 -16 c-17 -12 -21 -22 -17 -40 6 -22 5 -23 -19 -12
-19 9 -28 9 -37 0 -19 -19 -30 -14 -17 10 10 18 8 24 -12 39 l-24 19 33 0 c25
0 32 4 32 20 0 11 5 20 10 20 6 0 10 -9 10 -20z m93 -248 c9 -8 14 -19 12 -25
-2 -7 -6 -25 -9 -40 l-7 -28 -34 26 c-24 19 -43 26 -67 23 -25 -2 -33 1 -36
16 -2 11 2 25 10 30 21 15 112 14 131 -2z m-1113 -7 c0 -8 -16 -19 -39 -25
-22 -6 -49 -22 -59 -35 -15 -19 -22 -22 -30 -12 -13 16 -18 59 -9 75 12 19
137 17 137 -3z m36 -81 c7 -50 -6 -70 -36 -54 -11 6 -21 1 -37 -18 -19 -24
-22 -25 -28 -9 -5 12 0 27 16 44 22 24 22 25 4 19 -34 -12 -39 -12 -43 7 -2
10 2 17 12 17 15 0 25 4 76 31 26 13 29 10 36 -37z m944 18 c0 -4 -5 -13 -11
-19 -6 -6 -8 -16 -4 -23 4 -7 15 -3 32 15 28 28 43 31 61 13 26 -26 1 -101
-28 -83 -10 6 -9 10 4 17 17 10 22 48 7 48 -6 0 -16 -8 -23 -19 -7 -10 -23
-21 -35 -25 -30 -10 -51 30 -34 63 11 20 31 29 31 13z m-897 -112 c16 -32 11
-42 -31 -55 -35 -10 -72 -52 -65 -73 12 -33 -50 42 -68 82 -21 47 -19 52 9 35
15 -10 27 -10 44 -2 25 11 92 41 95 42 1 1 8 -12 16 -29z m898 5 c14 -1 31 -5
38 -9 7 -4 23 -5 37 -2 l24 7 -15 -37 c-15 -37 -32 -63 -49 -75 -4 -4 -33 17
-64 47 -48 46 -54 55 -42 69 8 10 19 13 29 9 9 -4 28 -8 42 -9z m-61 -90 c7
-18 17 -25 36 -25 16 0 24 -5 21 -12 -2 -8 -19 -12 -43 -10 l-39 2 23 -18 c20
-16 21 -20 9 -30 -11 -10 -17 -9 -27 3 -7 8 -16 15 -21 15 -4 0 -19 11 -32 24
l-24 24 26 26 c32 33 59 33 71 1z m-789 2 c-2 -25 -16 -64 -28 -75 -7 -7 -13
-20 -13 -28 0 -20 -13 -17 -27 5 -10 15 -10 21 0 24 8 3 7 10 -6 23 -14 15
-19 16 -26 6 -6 -10 -10 -10 -20 1 -9 12 -6 17 21 28 66 26 100 31 99 16z m67
-57 c22 -21 29 -40 14 -40 -11 0 -42 -66 -42 -90 0 -10 5 -22 10 -25 17 -10
11 -25 -7 -18 -20 7 -78 49 -105 76 -17 16 -17 17 3 17 22 0 49 25 77 73 20
32 22 33 50 7z m644 -30 c18 -17 45 -34 60 -38 33 -9 24 -23 -41 -70 l-43 -32
-20 38 c-58 109 -31 171 44 102z m-574 -13 c6 -6 12 -28 14 -47 l4 -35 15 32
c11 24 18 30 29 23 12 -7 12 -12 2 -22 -6 -6 -12 -20 -12 -30 0 -10 -4 -18 -9
-18 -5 0 -12 -12 -15 -26 -10 -39 -36 -12 -36 37 0 48 -17 51 -26 4 -5 -30 -9
-33 -25 -24 -18 9 -18 11 6 49 14 22 25 46 25 55 0 18 14 20 28 2z m479 -13
c2 -5 -6 -10 -18 -11 -28 -2 -35 -11 -21 -25 8 -8 15 -8 27 2 12 10 15 10 15
0 0 -7 -8 -19 -17 -26 -26 -18 -4 -40 25 -25 14 8 23 8 27 1 4 -6 -9 -17 -29
-25 -45 -19 -56 -19 -56 0 0 8 -5 25 -12 38 -6 12 -14 29 -18 37 -5 11 2 20
24 32 32 18 48 18 53 2z m-98 -69 c7 -19 23 -48 37 -64 l25 -30 -52 -15 c-85
-26 -104 -20 -77 23 9 15 9 25 0 46 -18 40 -15 65 11 74 31 12 41 5 56 -34z
m-241 29 c17 -5 20 -10 12 -20 -19 -21 -14 -70 9 -102 11 -17 21 -33 21 -37 0
-10 -88 4 -127 20 l-35 15 26 30 c14 17 33 46 42 65 18 38 18 38 52 29z m140
-22 c3 -9 -3 -11 -22 -6 -33 8 -54 -9 -51 -41 4 -31 13 -45 31 -45 8 0 14 10
14 25 0 18 5 25 19 25 16 0 17 -5 12 -32 -9 -47 -50 -51 -91 -9 -36 36 -37 41
-5 75 19 21 33 26 57 24 17 -2 33 -9 36 -16z"/>
<path d="M420 1018 c0 -4 14 -8 30 -8 17 0 30 5 30 10 0 6 -13 9 -30 8 -16 -1
-30 -6 -30 -10z"/>
<path d="M920 865 l0 -97 -30 4 c-16 3 -30 2 -30 0 0 -12 38 -31 63 -32 l27 0
0 99 c0 75 -4 101 -15 111 -13 11 -15 0 -15 -85z"/>
<path d="M465 870 c0 -75 1 -80 22 -80 16 0 23 8 28 30 9 41 49 70 96 70 l37
0 -4 -77 c-2 -42 -8 -81 -14 -87 -6 -6 -6 -14 1 -22 12 -14 16 -175 5 -192 -4
-7 -18 -12 -32 -12 -20 0 -24 -5 -24 -30 l0 -30 105 0 105 0 0 30 c0 22 -5 30
-18 30 -34 0 -42 21 -42 106 0 61 4 85 15 94 14 12 14 15 0 30 -10 12 -15 38
-15 88 l0 72 33 0 c46 0 96 -34 104 -70 3 -19 12 -30 22 -30 13 0 16 13 16 80
l0 80 -220 0 -220 0 0 -80z m248 -153 c-2 -159 0 -195 13 -215 9 -13 13 -27 9
-30 -6 -6 -77 -4 -83 3 -2 2 3 17 12 33 12 24 15 62 12 198 -1 93 -4 174 -6
179 -6 23 1 32 23 28 22 -4 22 -4 20 -196z"/>
<path d="M332 879 c6 -17 58 -25 58 -9 0 6 -8 10 -17 8 -10 -1 -24 1 -32 6 -9
6 -12 5 -9 -5z"/>
<path d="M574 866 c-33 -15 -44 -33 -44 -73 0 -23 -3 -25 -39 -21 -38 3 -39 2
-24 -14 10 -11 30 -18 55 -18 l38 0 0 43 c0 43 21 77 48 77 6 0 14 5 17 10 9
14 -14 12 -51 -4z"/>
<path d="M750 813 c0 -61 10 -93 30 -93 11 0 -5 154 -17 158 -10 3 -13 -15
-13 -65z"/>
<path d="M1103 804 c24 -29 21 -41 -3 -19 -18 17 -20 17 -14 2 3 -9 10 -17 15
-17 5 0 9 -7 9 -17 0 -13 -4 -11 -20 7 -11 13 -22 21 -25 18 -3 -3 4 -13 15
-23 11 -10 20 -25 21 -34 0 -9 7 2 15 24 14 37 13 40 -8 60 l-22 20 17 -21z"/>
<path d="M300 789 c0 -13 15 -18 38 -12 31 8 27 18 -8 19 -17 1 -30 -2 -30 -7z"/>
<path d="M1040 752 c0 -7 4 -12 9 -12 5 0 16 -15 25 -32 12 -26 16 -29 16 -12
0 11 -11 31 -25 44 -14 13 -25 18 -25 12z"/>
<path d="M1010 734 c0 -4 9 -14 19 -23 10 -9 21 -28 24 -41 4 -22 4 -22 5 5 1
21 -6 35 -23 48 -14 10 -25 15 -25 11z"/>
<path d="M768 699 c-25 -14 -27 -179 -3 -179 8 0 15 9 15 20 0 13 5 18 15 14
11 -5 15 -22 15 -65 l0 -59 -117 0 c-115 0 -116 0 -98 -20 16 -18 31 -20 132
-20 l113 0 0 34 c0 79 -12 124 -36 137 -21 11 -24 20 -24 64 0 43 4 55 23 68
21 15 21 16 2 16 -11 0 -28 -4 -37 -10z"/>
<path d="M1003 692 c10 -10 17 -28 17 -40 0 -12 5 -22 10 -22 6 0 10 8 10 18
0 22 -27 62 -42 62 -6 0 -4 -8 5 -18z"/>
<path d="M290 684 c11 -12 60 -7 60 6 0 4 -16 8 -35 7 -25 -1 -32 -4 -25 -13z"/>
<path d="M981 661 c12 -16 18 -34 15 -40 -4 -6 -2 -11 3 -11 18 0 12 46 -7 63
-29 26 -35 20 -11 -12z"/>
<path d="M282 649 c6 -17 58 -25 58 -9 0 6 -8 10 -17 8 -10 -1 -24 1 -32 6 -9
6 -12 5 -9 -5z"/>
<path d="M939 640 c15 -13 22 -27 18 -40 -3 -11 -1 -20 4 -20 16 0 9 52 -8 66
-28 21 -41 15 -14 -6z"/>
<path d="M893 615 c15 -13 27 -33 27 -45 0 -11 5 -20 10 -20 15 0 0 50 -21 71
-11 11 -25 19 -31 19 -7 0 -1 -12 15 -25z"/>
<path d="M820 600 c0 -5 8 -14 19 -19 10 -6 22 -22 25 -36 4 -14 11 -23 15
-20 14 8 0 48 -23 67 -24 20 -36 22 -36 8z"/>
<path d="M550 401 c0 -6 8 -11 17 -11 9 0 25 -7 35 -17 10 -9 18 -11 18 -6 0
14 -19 29 -47 37 -14 5 -23 3 -23 -3z"/>
<path d="M1078 75 c2 -14 8 -25 13 -25 5 0 6 6 3 14 -3 8 -1 17 5 21 7 3 11
-2 11 -14 0 -14 6 -21 20 -21 23 0 24 4 10 31 -7 12 -21 19 -39 19 -25 0 -28
-3 -23 -25z"/>
</g>
</svg>
