<svg xmlns="http://www.w3.org/2000/svg" width="120" height="70" viewBox="0 0 120 70" fill="none">
<path d="M107.089 15C105.987 15 105.111 15.6156 105.111 16.3651L105.78 23.9462C105.854 24.4029 106.413 24.7552 107.09 24.7552C107.768 24.7543 108.325 24.4023 108.401 23.9462L109.073 16.3651C109.073 15.6157 108.195 15.0001 107.091 15.0001L107.089 15ZM96.1788 21.0812C95.6065 21.0947 94.9563 21.5281 94.5427 22.2451C93.9896 23.1999 94.0877 24.2669 94.7348 24.6412L101.634 27.8542C102.065 28.0146 102.651 27.7085 102.989 27.1241C102.99 27.124 102.989 27.1238 102.989 27.1238C103.33 26.5365 103.304 25.8762 102.945 25.5833L96.7139 21.2127C96.552 21.1189 96.37 21.0767 96.1792 21.0813L96.1788 21.0812ZM118 21.0812C117.809 21.0766 117.627 21.1188 117.466 21.2126L111.233 25.5832C110.877 25.8761 110.851 26.5364 111.189 27.1237L111.19 27.124C111.53 27.7084 112.114 28.0145 112.545 27.8542L119.447 24.6413C120.097 24.267 120.19 23.2 119.641 22.2452C119.225 21.5281 118.574 21.0948 118.002 21.0812L118 21.0812ZM101.892 31.0833C101.803 31.0821 101.716 31.0959 101.635 31.1264L94.7357 34.3355C94.0886 34.7115 93.9906 35.7789 94.5437 36.7347C95.0951 37.6876 96.0671 38.1407 96.7143 37.767L102.946 33.3997C103.305 33.1032 103.331 32.4431 102.99 31.8564L102.993 31.8577C102.718 31.3798 102.279 31.0885 101.892 31.0832L101.892 31.0833ZM112.29 31.0833C111.903 31.0886 111.465 31.3799 111.189 31.8578L111.191 31.8565C110.852 32.4432 110.879 33.1033 111.235 33.3998L117.467 37.7671C118.113 38.1408 119.086 37.6877 119.64 36.7348C120.189 35.779 120.096 34.7116 119.446 34.3356L112.546 31.1265C112.465 31.096 112.379 31.0822 112.29 31.0834L112.29 31.0833ZM107.088 34.2252C106.413 34.226 105.855 34.5768 105.781 35.0324L105.111 42.6131C105.111 43.3638 105.988 43.9782 107.09 43.9782C108.195 43.9782 109.073 43.3638 109.073 42.6131L108.401 35.0324C108.326 34.5768 107.768 34.2261 107.091 34.2252H107.088H107.088Z" fill="#FFC220"/>
<path d="M0 21.0814C0 21.0814 2.98573 33.3161 3.46224 35.3019C4.01841 37.6198 5.02054 38.4729 7.90986 37.8976L9.77423 30.3121C10.2467 28.428 10.5637 27.0847 10.8674 25.168H10.9209C11.1343 27.1035 11.4382 28.4336 11.827 30.3187C11.827 30.3187 12.586 33.7623 12.9746 35.571C13.3643 37.379 14.4487 38.5186 17.2788 37.8982L21.7211 21.0827H18.1345L16.6179 28.3528C16.2102 30.469 15.8402 32.1226 15.5549 34.0586H15.5043C15.245 32.1419 14.9153 30.5539 14.5007 28.492L12.9216 21.0827H9.18467L7.49555 28.3053C7.01701 30.5001 6.56944 32.2724 6.28482 34.1427H6.23327C5.94179 32.3814 5.55357 30.1539 5.13317 28.0293C5.13317 28.0293 4.12963 22.8633 3.77753 21.0827L0.000349217 21.0831L0 21.0814ZM34.1911 21.0814V37.8969H37.6059V34.3262V21.0806H34.1911V21.0814ZM82.285 21.0814V33.4865C82.285 35.1968 82.6068 36.3951 83.2955 37.1272C83.8971 37.7674 84.8881 38.182 86.0756 38.182C87.0851 38.182 88.0785 37.9906 88.5466 37.8162L88.5026 35.1476C88.1543 35.2334 87.7535 35.302 87.2054 35.302C86.0422 35.302 85.6521 34.557 85.6521 33.0213V28.2751H88.6261V25.0578H85.6521V21.0814H82.2848L82.285 21.0814ZM26.5598 24.9796C24.4377 24.9796 22.753 25.5754 21.8348 26.1061L22.5068 28.4072C23.3472 27.8774 24.6853 27.4388 25.9523 27.4388C28.05 27.4334 28.393 28.6249 28.393 29.3891V29.5698C23.8221 29.563 20.9348 31.1447 20.9348 34.3688C20.9348 36.3372 22.4046 38.182 24.9603 38.182C26.5336 38.182 27.8493 37.5545 28.6379 36.5492H28.7152C28.7152 36.5492 29.2374 38.7325 32.1142 37.8976C31.9631 36.9889 31.914 36.02 31.914 34.8531V30.3609C31.914 27.4978 30.6915 24.9796 26.5599 24.9796L26.5598 24.9796ZM46.9866 24.9796C44.8498 24.9796 43.8895 26.0625 43.3073 26.9812H43.2567V25.2647H39.9979V37.8977H43.4308V30.489C43.4308 30.1417 43.4705 29.7744 43.5918 29.4549C43.8762 28.709 44.5702 27.8364 45.6782 27.8364C47.0634 27.8364 47.7116 29.0075 47.7116 30.6976V37.8976H51.1408V30.3992C51.1408 30.0677 51.1863 29.6683 51.2838 29.3752C51.5658 28.5267 52.3139 27.8363 53.3439 27.8363C54.7482 27.8363 55.4221 28.987 55.4221 30.9757V37.8976H58.8538V30.4572C58.8538 26.5333 56.8613 24.9796 54.6122 24.9796C53.6161 24.9796 52.8299 25.2294 52.1191 25.6658C51.5216 26.0324 50.9867 26.5533 50.5192 27.2392H50.4686C49.9246 25.8778 48.6485 24.9796 46.9861 24.9796L46.9866 24.9796ZM65.8379 24.9796C63.7162 24.9796 62.032 25.5754 61.1129 26.1061L61.7858 28.4072C62.6254 27.8774 63.9643 27.4388 65.2307 27.4388C67.327 27.4334 67.6707 28.6249 67.6707 29.3891V29.5698C63.1005 29.563 60.2129 31.1447 60.2129 34.3688C60.2129 36.3372 61.6834 38.182 64.2405 38.182C65.8125 38.182 67.1287 37.5545 67.9158 36.5492H67.9934C67.9934 36.5492 68.5155 38.7325 71.3928 37.8976C71.2414 36.9889 71.1929 36.02 71.1929 34.8531V30.3609C71.1929 27.4978 69.9701 24.9796 65.8379 24.9796L65.8379 24.9796ZM80.0941 24.9796C78.7795 24.9796 77.2839 25.8281 76.6561 27.6471H76.5603V25.2646H73.4699V37.8976H76.9928V31.4287C76.9928 31.0797 77.014 30.7754 77.0692 30.4964C77.3298 29.1413 78.3662 28.2751 79.8538 28.2751C80.2621 28.2751 80.5544 28.3193 80.8706 28.365V25.0577C80.6055 25.0041 80.4241 24.9795 80.0942 24.9795L80.0941 24.9796ZM28.5032 31.8085V33.3844C28.5032 33.6176 28.4829 33.8581 28.4184 34.0684C28.1541 34.9437 27.2473 35.6833 26.1138 35.6833C25.1688 35.6833 24.4181 35.147 24.4181 34.0124C24.4181 32.2769 26.3285 31.7972 28.5033 31.8085H28.5032ZM67.7813 31.8085V33.3844C67.7813 33.6176 67.7606 33.8581 67.6965 34.0684C67.4322 34.9437 66.5258 35.6833 65.3923 35.6833C64.4471 35.6833 63.6962 35.147 63.6962 34.0124C63.6962 32.2769 65.6066 31.7972 67.7814 31.8085H67.7813Z" fill="white"/>
<path d="M37.7132 46.8744C38.1789 44.0893 40.372 41.9935 43.1919 41.639C43.67 41.579 44.6189 41.6145 45.126 41.7115C46.1412 41.9058 47.1402 42.3897 47.9582 43.0835C48.3368 43.4046 48.3271 43.5201 47.884 43.9666C47.6976 44.1544 47.5191 44.308 47.4873 44.308C47.4554 44.308 47.2314 44.1605 46.9895 43.9802C46.1188 43.331 45.3271 42.9968 44.4032 42.8884C43.4186 42.7729 42.342 43.0084 41.4564 43.5329C40.8999 43.8626 40.1649 44.593 39.8147 45.1643C38.0402 48.0598 39.5022 51.8611 42.716 52.7082C43.1302 52.8174 43.3203 52.8383 43.9139 52.8396C45.1724 52.8425 45.9821 52.5508 47.0089 51.7245C47.1867 51.5814 47.3802 51.4644 47.4388 51.4644C47.5029 51.4644 47.6729 51.5931 47.8655 51.7874C48.1387 52.0631 48.1809 52.1293 48.1533 52.2395C48.0805 52.5293 47.2136 53.1741 46.3567 53.5756C43.4803 54.9235 39.9429 53.717 38.3742 50.853C38.1548 50.4525 37.9218 49.8287 37.7846 49.2745C37.6342 48.6669 37.6009 47.5465 37.7132 46.8744Z" fill="white"/>
<path d="M58.9361 46.5437C59.493 46.144 60.2442 45.8498 60.9066 45.7719C61.571 45.6938 62.3388 45.7994 62.8631 46.0411C63.5053 46.3372 63.9529 47.0008 64.1588 47.9618C64.2611 48.4391 64.267 48.6056 64.2705 51.1034L64.2742 53.7409L64.1552 53.8374C64.0593 53.9152 63.9549 53.9338 63.6154 53.9338C62.9381 53.9338 62.9981 54.2051 62.976 51.0421C62.9602 48.7708 62.9452 48.3248 62.8768 48.0997C62.7012 47.5216 62.3631 47.1383 61.909 47.0028C61.6164 46.9155 60.9877 46.9061 60.6103 46.9833C60.2271 47.0617 59.488 47.4344 59.1211 47.7342L58.8061 47.9916V50.8461V53.7006L58.6966 53.8172C58.5987 53.9214 58.5412 53.9338 58.1588 53.9338C57.831 53.9338 57.7089 53.9143 57.6384 53.8504C57.5506 53.771 57.5462 53.5815 57.5462 49.8752C57.5462 46.4714 57.5558 45.9756 57.6221 45.9205C57.6708 45.8801 57.7897 45.8664 57.9543 45.8822C58.2729 45.9128 58.4764 46.0965 58.6016 46.4665L58.6881 46.7217L58.9361 46.5437Z" fill="white"/>
<path fill-rule="evenodd" clip-rule="evenodd" d="M51.8628 45.7732C51.274 45.8301 50.4452 46.0815 50.0497 46.3232C49.8502 46.445 49.8419 46.5734 50.0055 47.0005C50.1625 47.4103 50.2408 47.4536 50.5915 47.3237C51.5422 46.9716 51.5648 46.9661 52.1538 46.9423C52.6587 46.9218 52.77 46.9326 53.0179 47.0262C53.6409 47.2614 54.0218 47.8022 54.129 48.6037C54.1613 48.8459 54.1752 49.0566 54.1597 49.0721C54.1442 49.0875 53.8964 49.0502 53.6089 48.9891C52.8903 48.8364 51.8982 48.8365 51.3222 48.9894C50.7223 49.1485 50.3096 49.3702 49.9554 49.7233C49.4556 50.2218 49.2301 50.7869 49.2315 51.538C49.2334 52.5624 49.7002 53.4323 50.4692 53.844C51.4596 54.3743 52.943 54.1665 53.9348 53.3587C54.2141 53.1312 54.2704 53.1195 54.2704 53.2891C54.2704 53.4342 54.4542 53.7613 54.6001 53.8761C54.7947 54.0292 55.1548 54.0709 55.2826 53.9552C55.382 53.8653 55.3834 53.8135 55.367 50.9884C55.3505 48.1621 55.3482 48.1066 55.2351 47.7354C54.9134 46.6799 54.2689 46.0529 53.2982 45.8512C52.8067 45.7491 52.3618 45.7249 51.8628 45.7732ZM53.8295 50.1566C53.6423 50.101 53.3419 50.0325 53.1617 50.0044C52.9815 49.9762 52.664 49.9556 52.4561 49.9584C51.5604 49.9706 50.9766 50.2494 50.6711 50.8108C50.2853 51.5196 50.5618 52.4635 51.2654 52.8398C51.5703 53.0029 52.3419 52.9992 52.8254 52.8323C53.2338 52.6913 53.8513 52.2916 54.0371 52.048C54.1675 51.8771 54.1696 51.8612 54.1696 51.0661V50.2578L53.8295 50.1566Z" fill="white"/>
<path fill-rule="evenodd" clip-rule="evenodd" d="M68.432 45.7703C67.921 45.8204 67.4336 45.9484 66.9212 46.167C66.3738 46.4006 66.3398 46.4725 66.5379 46.9775C66.6147 47.1733 66.7157 47.3538 66.7623 47.3787C66.8189 47.409 66.9384 47.3908 67.1229 47.3235C67.2746 47.2683 67.5576 47.1654 67.7516 47.095C68.277 46.9043 69.1443 46.8738 69.5618 47.0313C70.1191 47.2416 70.4831 47.7036 70.6272 48.3836C70.7004 48.7287 70.7224 49.0957 70.6699 49.0957C70.6535 49.0957 70.4097 49.0468 70.1282 48.9869C69.4233 48.837 68.4231 48.8376 67.8603 48.9882C66.4328 49.3704 65.6906 50.3488 65.7749 51.7373C65.8398 52.8059 66.4113 53.6427 67.3119 53.9877C67.716 54.1424 68.4904 54.1774 69.0005 54.0639C69.4781 53.9576 70.0914 53.663 70.4605 53.3623C70.6174 53.2345 70.7555 53.1464 70.7672 53.1665C70.7791 53.1866 70.8035 53.272 70.8216 53.3563C70.8777 53.6186 71.0435 53.8339 71.2678 53.9357C71.5388 54.0587 71.7195 54.06 71.8282 53.9399C71.9073 53.8526 71.9127 53.621 71.8972 50.9791C71.8828 48.5153 71.8843 48.0073 71.7186 47.5615C71.6703 47.4313 71.6076 47.3064 71.5262 47.1396C71.3046 46.6856 70.9241 46.2927 70.5018 46.0817C69.9761 45.819 69.1707 45.6978 68.432 45.7703ZM70.3596 50.1566C70.1725 50.101 69.872 50.0325 69.6919 50.0044C69.5117 49.9762 69.1942 49.9556 68.9863 49.9584C68.0873 49.9706 67.5097 50.2478 67.1957 50.8177C67.0639 51.0569 67.0478 51.1334 67.0496 51.5148C67.0518 52.01 67.122 52.2097 67.4031 52.5208C67.6755 52.8224 67.931 52.9383 68.3828 52.9653C69.0872 53.0074 69.9062 52.6969 70.4171 52.194L70.6998 51.9159V51.0868V50.2578L70.3596 50.1566Z" fill="white"/>
<path fill-rule="evenodd" clip-rule="evenodd" d="M79.7828 41.8219C79.7476 41.8361 79.6852 41.9126 79.6442 41.9919C79.582 42.1121 79.5697 42.4752 79.5697 44.1849C79.5697 46.1171 79.5646 46.2317 79.4815 46.1963C78.7602 45.8883 78.156 45.7617 77.4026 45.7607C76.657 45.7598 76.1839 45.8607 75.6135 46.1425C74.2997 46.7915 73.5724 48.1338 73.5724 49.9098C73.5724 51.2331 73.9774 52.2685 74.8324 53.1315C75.5019 53.8073 76.2606 54.1354 77.1531 54.1354C77.9039 54.1354 78.7374 53.8501 79.3741 53.375C79.5194 53.2666 79.6522 53.1779 79.6691 53.1779C79.6861 53.1779 79.7263 53.2765 79.7586 53.3969C79.8336 53.6776 80.0493 53.9074 80.3115 53.986C80.5776 54.0657 80.7693 54.0169 80.8313 53.8536C80.8616 53.7741 80.88 51.5305 80.88 47.9308C80.88 42.3557 80.8844 41.9397 80.7119 41.8446C80.6936 41.8346 80.6734 41.8281 80.6509 41.8195C80.5549 41.7827 79.8757 41.7845 79.7828 41.8219ZM79.2799 47.2379C79.1205 47.1794 78.854 47.0949 78.6877 47.0502C78.5107 47.0025 78.1033 46.9596 77.705 46.9468C77.0871 46.9269 76.9935 46.9358 76.6855 47.0436C75.5526 47.4404 74.8745 48.5201 74.8745 49.9273C74.8745 50.7514 75.0666 51.371 75.5182 52.0038C76.303 53.1037 77.6649 53.2868 78.8373 52.4501C79.0134 52.3245 79.2501 52.1136 79.3633 51.9816L79.569 51.7416L79.5694 49.5429L79.5697 47.3442L79.2799 47.2379Z" fill="white"/>
<path fill-rule="evenodd" clip-rule="evenodd" d="M85.08 45.7727C84.2332 45.8548 83.1413 46.2678 83.1057 46.5195C83.0825 46.6836 83.285 47.2367 83.4068 47.3422C83.5011 47.4237 83.527 47.4202 83.9192 47.2728C84.6978 46.9802 84.9896 46.921 85.5669 46.9386C86.0235 46.9525 86.1352 46.9739 86.3814 47.0944C86.7184 47.2594 86.9949 47.5483 87.1575 47.9054C87.272 48.157 87.4297 49.0137 87.3721 49.0713C87.3561 49.0872 87.1079 49.0502 86.8204 48.9891C86.1018 48.8364 85.1098 48.8365 84.5338 48.9894C83.1788 49.3488 82.4407 50.2487 82.443 51.538C82.4454 52.8163 83.1249 53.7695 84.2411 54.0602C85.148 54.2965 86.3458 54.0064 87.1421 53.3578L87.4272 53.1255L87.4791 53.3155C87.5478 53.5666 87.7002 53.8086 87.8522 53.9082C88.0484 54.0368 88.3169 54.0605 88.4664 53.9626L88.596 53.8777L88.5775 50.9954C88.5618 48.5356 88.563 48.0413 88.4092 47.601C88.3653 47.4754 88.3088 47.3542 88.2358 47.1931C88.0475 46.7777 87.5662 46.2731 87.1694 46.0748C86.6488 45.8147 85.8455 45.6985 85.08 45.7727ZM87.1923 50.1997C87.1161 50.1708 86.9177 50.1138 86.7514 50.073C86.3802 49.9821 85.3683 49.9399 85.0718 50.0029C84.5186 50.1206 84.0593 50.4367 83.8521 50.8424C83.7482 51.0458 83.7275 51.1578 83.7279 51.5148C83.7286 52.1594 83.9556 52.561 84.4766 52.8397C84.7797 53.0018 85.5534 52.9993 86.03 52.8346C86.4241 52.6985 86.8822 52.4147 87.145 52.1442L87.3308 51.9529V51.1027V50.2524L87.1923 50.1997Z" fill="white"/>
</svg>